PathFileType	4	(X/Y/Z)	/Users/itak/Documents/Research/Walk-IL/dataset/trc/00539_00009.trc
DataRate	CameraRate	NumFrames	NumMarkers	Units	OrigDataRate	OrigDataStartFrame	OrigNumFrames
100.000000	100.000000	4	53	mm	100.000000	380	761
Frame#	Time	RPSI			LPSI			L3			STRN			T10			C7			CLAV			RBAK			LBAK			LSHO			LUPA			LAEL			LAOL			LWTS			LWPS			LFRA			LIFD			LHPS			LHTS			RSHO			RUPA			RAEL			RAOL			RWTS			RWPS			RFRA			RIFD			RHTS			RHPS			RBHD			LFHD			RFHD			LBHD			LHIP			RHIP			RASI			LASI			LKNE			LTHI			LANK			LTIP			LTOE			LMT1			LMT5			LHEE			RKNE			RTHI			RANK			RTIP			RTOE			RMT1			RMT5			RHEE			
		X1	Y1	Z1	X2	Y2	Z2	X3	Y3	Z3	X4	Y4	Z4	X5	Y5	Z5	X6	Y6	Z6	X7	Y7	Z7	X8	Y8	Z8	X9	Y9	Z9	X10	Y10	Z10	X11	Y11	Z11	X12	Y12	Z12	X13	Y13	Z13	X14	Y14	Z14	X15	Y15	Z15	X16	Y16	Z16	X17	Y17	Z17	X18	Y18	Z18	X19	Y19	Z19	X20	Y20	Z20	X21	Y21	Z21	X22	Y22	Z22	X23	Y23	Z23	X24	Y24	Z24	X25	Y25	Z25	X26	Y26	Z26	X27	Y27	Z27	X28	Y28	Z28	X29	Y29	Z29	X30	Y30	Z30	X31	Y31	Z31	X32	Y32	Z32	X33	Y33	Z33	X34	Y34	Z34	X35	Y35	Z35	X36	Y36	Z36	X37	Y37	Z37	X38	Y38	Z38	X39	Y39	Z39	X40	Y40	Z40	X41	Y41	Z41	X42	Y42	Z42	X43	Y43	Z43	X44	Y44	Z44	X45	Y45	Z45	X46	Y46	Z46	X47	Y47	Z47	X48	Y48	Z48	X49	Y49	Z49	X50	Y50	Z50	X51	Y51	Z51	X52	Y52	Z52	X53	Y53	Z53	

381	3.8	61.3992805480957	1008.161865234375	489.905517578125	64.11241912841797	1016.152404785156	356.6542663574219	65.17729949951172	1107.201171875	420.0154724121094	299.4982299804688	1295.367309570312	412.4372253417969	55.91757202148438	1232.799560546875	418.2424011230469	104.8567352294922	1506.675415039062	427.37109375	279.6499633789062	1406.603881835938	413.7253723144531	37.53758239746094	1381.8798828125	518.1423950195312	69.85193634033203	1453.440795898438	335.9499206542969	168.0929870605469	1478.1318359375	253.9193420410156	170.0204315185547	1353.426513671875	171.8130187988281	223.4194183349609	1138.181640625	143.2742767333984	134.5957489013672	1114.320434570312	187.2680816650391	359.3755493164062	917.8828735351562	189.0214691162109	322.9654235839844	888.5841064453125	114.96484375	261.9172058105469	1058.157836914062	136.1022491455078	393.498046875	750.7467041015625	179.1560516357422	343.9805603027344	831.9639892578125	121.913200378418	392.4232482910156	846.7205810546875	167.2650299072266	171.0049133300781	1468.794189453125	581.057861328125	156.13525390625	1404.483642578125	649.7108154296875	155.7566223144531	1116.330322265625	698.279052734375	101.4885787963867	1096.158569335938	671.977294921875	306.9087219238281	908.7667846679688	661.0963134765625	264.4313049316406	884.9682006835938	726.8780517578125	169.7990264892578	1061.797241210938	706.430419921875	334.4211120605469	737.8864135742188	664.7085571289062	343.9893493652344	820.5565795898438	676.586181640625	289.3631286621094	812.85791015625	725.8417358398438	178.6898956298828	1687.19873046875	481.0012512207031	346.5974426269531	1707.718627929688	360.2994079589844	316.3092346191406	1708.957641601562	501.0290222167969	220.5562744140625	1684.198974609375	321.2725219726562	195.1188049316406	941.9898071289062	225.3181610107422	186.1804809570312	935.9027099609375	611.1266479492188	271.5109252929688	969.7653198242188	555.0491333007812	271.5433349609375	967.7061767578125	278.6303100585938	255.3020324707031	499.484619140625	308.0304565429688	240.8540191650391	663.2913208007812	264.7852783203125	180.3310089111328	31.90793228149414	345.5243530273438	198.7102355957031	249.9159240722656	322.953857421875	387.28955078125	40.95787811279297	420.1133728027344	311.9607238769531	46.64160919189453	448.6842346191406	302.6583251953125	35.53599548339844	340.6558532714844	108.3972015380859	38.20005035400391	394.2493286132812	265.3098449707031	497.9173583984375	588.0442504882812	240.9454650878906	787.2110595703125	609.6443481445312	-67.84965515136719	150.7767333984375	574.532470703125	195.1427764892578	369.4307556152344	580.3052368164062	123.8577117919922	48.80839157104492	564.9818115234375	73.80741119384766	72.90479278564453	515.349609375	38.87371063232422	85.15122222900391	613.060791015625	-108.1669082641602	170.6746520996094	510.359375	
382	3.81	65.17019653320312	1008.307495117188	489.4280395507812	68.02678680419922	1016.080200195312	356.1229248046875	68.99613952636719	1107.325927734375	419.2399597167969	303.2536926269531	1295.590454101562	411.9811706542969	59.68883514404297	1232.889038085938	417.2586669921875	108.5233764648438	1506.75390625	426.3980712890625	283.3984985351562	1406.8330078125	413.26611328125	40.95104217529297	1382.006225585938	516.993408203125	73.79498291015625	1453.48779296875	334.8197021484375	172.2662811279297	1478.32275390625	253.1805267333984	174.8982543945312	1353.707885742188	171.0579223632812	229.8255157470703	1138.854248046875	142.5883331298828	140.8782653808594	1114.361083984375	186.0083160400391	367.0796813964844	919.503173828125	189.1108245849609	331.3972473144531	890.0884399414062	114.7757720947266	268.8844299316406	1059.12255859375	135.6659240722656	402.3548278808594	752.5868530273438	179.2170257568359	352.7392578125	833.601806640625	121.7621917724609	400.5944213867188	848.5383911132812	167.6445465087891	174.2421875	1468.999267578125	580.26806640625	159.1829376220703	1404.652465820312	648.8856201171875	158.7693939208984	1116.50390625	697.3003540039062	104.7660827636719	1096.169799804688	670.8158569335938	311.2082824707031	909.8867797851562	659.8407592773438	268.6423034667969	885.6047973632812	725.4442138671875	173.1452026367188	1061.9755859375	705.2953491210938	339.7887878417969	739.2021484375	663.021728515625	348.803955078125	821.8785400390625	675.1812744140625	294.0935974121094	813.6912231445312	724.298828125	182.2837066650391	1687.3935546875	480.3812866210938	350.3623962402344	1707.865234375	359.8905029296875	319.8667297363281	1709.087036132812	500.60986328125	224.3755493164062	1684.456420898438	320.7205200195312	198.7450714111328	941.480712890625	224.7065887451172	190.21240234375	936.482421875	610.761474609375	275.3385620117188	970.4202880859375	554.3684692382812	275.3714904785156	967.6015625	278.0083312988281	257.4015808105469	499.0863952636719	308.1276550292969	243.7957611083984	662.968017578125	264.7731628417969	180.4035186767578	32.08832931518555	345.58447265625	199.7254638671875	249.8090972900391	323.1764526367188	387.3473205566406	40.79137420654297	420.3035888671875	312.1177978515625	46.51200485229492	448.7818298339844	302.7063598632812	35.62121200561523	340.7492980957031	108.4199752807617	38.39316177368164	394.4104614257812	272.9075317382812	499.0093994140625	587.0433959960938	245.9741516113281	787.991455078125	609.3473510742188	-52.80899047851562	144.5730133056641	575.6738891601562	204.9633941650391	369.31396484375	579.9445190429688	142.4936065673828	49.41963577270508	566.599853515625	91.47975158691406	71.10097503662109	516.8727416992188	56.32688903808594	83.17022705078125	614.3177490234375	-93.98246002197266	162.6119079589844	511.3910827636719	
383	3.82	68.85420989990234	1008.427490234375	488.9828491210938	71.87099456787109	1015.998962402344	355.6323852539062	72.76219940185547	1107.426147460938	418.5064086914062	306.9759216308594	1295.758178710938	411.560546875	63.46495056152344	1232.940673828125	416.2780151367188	112.1793746948242	1506.79736328125	425.4481201171875	287.1268310546875	1407.0087890625	412.8298950195312	44.34325790405273	1382.106079101562	515.8568115234375	77.72153472900391	1453.502563476562	333.7138977050781	176.4174652099609	1478.470336914062	252.4566192626953	179.6755065917969	1353.948486328125	170.3139953613281	235.9937896728516	1139.45751953125	141.921630859375	146.9401550292969	1114.35888671875	184.8043975830078	374.591796875	921.1442260742188	189.3188934326172	339.6026306152344	891.5347900390625	114.765625	275.6183776855469	1060.020385742188	135.2844085693359	411.1376647949219	754.4842529296875	179.5392913818359	361.2991333007812	835.1898803710938	121.8431015014648	408.6202697753906	850.3887939453125	168.1732177734375	177.4642181396484	1469.146728515625	579.5027465820312	162.2039489746094	1404.771240234375	648.0812377929688	161.6981964111328	1116.619018554688	696.36767578125	107.9689178466797	1096.133544921875	669.6905517578125	315.3449096679688	910.9202270507812	658.6802368164062	272.7199096679688	886.1879272460938	724.1008911132812	176.3807220458984	1062.110107421875	704.2139282226562	344.9645385742188	740.4400634765625	661.4263916015625	353.4528198242188	823.1141357421875	673.8658447265625	298.6290893554688	814.4710693359375	722.8441162109375	185.8153228759766	1687.525390625	479.786376953125	354.0475769042969	1708.037475585938	359.4812622070312	323.3485412597656	1709.205444335938	500.2205505371094	228.1309204101562	1684.6689453125	320.1895141601562	202.1712341308594	940.978271484375	224.0358428955078	194.1781768798828	936.985595703125	610.3887939453125	279.1015014648438	971.0106201171875	553.7349243164062	279.1515808105469	967.4539794921875	277.4453735351562	259.4510498046875	498.67919921875	308.236572265625	246.6851959228516	662.635009765625	264.7753295898438	180.4926300048828	32.27971267700195	345.6399841308594	200.7294769287109	249.6998748779297	323.3775024414062	387.4201354980469	40.62954330444336	420.4684448242188	312.2733764648438	46.39187622070312	448.8742980957031	302.7445068359375	35.70087432861328	340.8387145996094	108.4394607543945	38.64666748046875	394.5725708007812	280.3790283203125	500.0460205078125	585.9963989257812	250.8954772949219	788.6867065429688	609.03955078125	-37.24053573608398	138.0195770263672	576.9571533203125	214.8417663574219	369.0664978027344	579.531005859375	161.4135589599609	49.87728881835938	567.814697265625	109.4709625244141	69.21434020996094	518.0698852539062	74.30107879638672	80.95921325683594	615.3511352539062	-79.34463500976562	154.2528991699219	512.6900634765625	
384	3.83	72.44853973388672	1008.514770507812	488.5608825683594	75.6458740234375	1015.91015625	355.1692504882812	76.45798492431641	1107.503295898438	417.8104553222656	310.6653747558594	1295.866821289062	411.1726684570312	67.23887634277344	1232.957153320312	415.2976379394531	115.8230438232422	1506.811767578125	424.5195617675781	290.8317260742188	1407.128295898438	412.4165649414062	47.71364212036133	1382.174438476562	514.7330932617188	81.62763977050781	1453.48681640625	332.6343688964844	180.5522155761719	1478.56787109375	251.7432556152344	184.3698883056641	1354.136474609375	169.5757446289062	241.9325256347656	1139.978759765625	141.2726287841797	152.7809600830078	1114.300415039062	183.6537628173828	381.9016418457031	922.788818359375	189.6487274169922	347.5888061523438	892.9074096679688	114.9256362915039	282.12646484375	1060.836791992188	134.9543762207031	419.83251953125	756.4215087890625	180.1321563720703	369.6570434570312	836.7120971679688	122.1539840698242	416.5006103515625	852.2568969726562	168.8496246337891	180.6699066162109	1469.234130859375	578.764892578125	165.2010498046875	1404.838745117188	647.296142578125	164.5714263916016	1116.668212890625	695.4758911132812	111.0991744995117	1096.051147460938	668.61279296875	319.3247375488281	911.849853515625	657.60888671875	276.6633911132812	886.7042236328125	722.8501586914062	179.5209197998047	1062.193481445312	703.190185546875	349.9288635253906	741.57275390625	659.9400024414062	357.9266967773438	824.2403564453125	672.646728515625	302.9688110351562	815.179443359375	721.4854736328125	189.2919464111328	1687.595825195312	479.2120666503906	357.6542663574219	1708.232421875	359.0617980957031	326.7698059082031	1709.30712890625	499.8569030761719	231.8325805664062	1684.8310546875	319.6769104003906	205.4772033691406	940.507568359375	223.3674926757812	198.0634765625	937.4078979492188	610.0119018554688	282.7926635742188	971.533447265625	553.1535034179688	282.8871459960938	967.2662353515625	276.9411926269531	261.4540710449219	498.2699584960938	308.3511047363281	249.5183715820312	662.2967529296875	264.7952270507812	180.6009674072266	32.4837760925293	345.6937866210938	201.7264404296875	249.5906066894531	323.5484619140625	387.5124206542969	40.47781372070312	420.6067810058594	312.4201049804688	46.28255462646484	448.959716796875	302.7720336914062	35.77202606201172	340.9223937988281	108.4523010253906	38.94738006591797	394.7393493652344	287.7315979003906	501.0320129394531	584.9260864257812	255.7062377929688	789.3008422851562	608.727783203125	-21.1980094909668	131.2465057373047	578.349609375	224.7639923095703	368.7245483398438	579.0798950195312	180.5094451904297	50.23629760742188	568.6339111328125	127.6769485473633	67.30390167236328	518.954345703125	92.66720581054688	78.54892730712891	616.1888427734375	-64.28428649902344	145.7413787841797	514.2211303710938	
